PathFileType	4	(x/y/z)	S06_M20_T25
DataRate	CameraRate	NumFrames	NumMarkers	Units	OrigDataRate	OrigDataStartFrame	OrigNumFrames
240	240	10	51	mm	240	247	492
Frame#	Time	Sternum			R.Acromium			L.Acromium			Top.Head			R.ASIS			L.ASIS			R.PSIS			L.PSIS			R.Great.Tro			L.Great.Tro			R.Iliac.Crest			L.Iliac.Crest			V.Sacral			R.Thigh.Upper.Post			R.Thigh.Lower.Ant			R.Thigh.Lower.Post			R.Thigh.Upper.Ant			R.Knee.Lat			R.Knee.Med			R.Shank.Upper.Post			R.Shank.Lower.Ant			R.Shank.Lower.Post			R.Shank.Upper.Ant			R.Ankle.Lat			R.Ankle.Med			R.Heel.Upper			R.Heel.Med			R.Heel.Lat			R.Toe.Lat			R.Toe.Med			R.Toe.Tip			L.Thigh.Upper.Post			L.Thigh.Lower.Ant			L.Thigh.Lower.Post			L.Thigh.Upper.Ant			L.Knee.Lat			L.Knee.Med			L.Shank.Upper.Post			L.Shank.Lower.Ant			L.Shank.Lower.Post			L.Shank.Upper.Ant			L.Ankle.Lat			L.Ankle.Med			L.Heel.Upper			L.Heel.Med			L.Heel.Lat			L.Toe.Lat			L.Toe.Med			L.Toe.Tip			Cervical.Spine			Back			
		X1	Y1	Z1	X2	Y2	Z2	X3	Y3	Z3	X4	Y4	Z4	X5	Y5	Z5	X6	Y6	Z6	X7	Y7	Z7	X8	Y8	Z8	X9	Y9	Z9	X10	Y10	Z10	X11	Y11	Z11	X12	Y12	Z12	X13	Y13	Z13	X14	Y14	Z14	X15	Y15	Z15	X16	Y16	Z16	X17	Y17	Z17	X18	Y18	Z18	X19	Y19	Z19	X20	Y20	Z20	X21	Y21	Z21	X22	Y22	Z22	X23	Y23	Z23	X24	Y24	Z24	X25	Y25	Z25	X26	Y26	Z26	X27	Y27	Z27	X28	Y28	Z28	X29	Y29	Z29	X30	Y30	Z30	X31	Y31	Z31	X32	Y32	Z32	X33	Y33	Z33	X34	Y34	Z34	X35	Y35	Z35	X36	Y36	Z36	X37	Y37	Z37	X38	Y38	Z38	X39	Y39	Z39	X40	Y40	Z40	X41	Y41	Z41	X42	Y42	Z42	X43	Y43	Z43	X44	Y44	Z44	X45	Y45	Z45	X46	Y46	Z46	X47	Y47	Z47	X48	Y48	Z48	X49	Y49	Z49	X50	Y50	Z50	X51	Y51	Z51	

247	1.025	-231.48	1300	304.48	-350.38	1500	482.04	-382.43	1505.8	132.4	-292.01	1815.1	306.97	-266.27	1068.4	438.64	-254.47	1062	185.52	NaN	NaN	NaN	-461.09	1076.2	257.63	-330.62	993.43	484.52	-338.79	978.35	131.3	-356.08	1138.6	465.48	-330.29	1128.9	144.06	-474.14	1041.8	302.49	-354.49	744.74	457.56	-306.36	660.73	423.17	-374.73	660.47	434.85	-281.71	746.28	444.13	-372.58	546.37	415.5	-360.96	557.78	288.05	-453.67	325.84	394.58	-402.93	255.01	372.78	-468.19	251.89	373.5	-388.99	328.27	393.2	-455.29	118.69	341.19	-434.82	129.39	259.96	-521.77	84.576	287.87	-515.09	52.496	258.07	-517.36	53.097	322.95	-341.99	35.844	369.72	-313.83	43.054	249.27	-247.18	46.476	296.72	-175.96	755.93	147.48	-107.51	695.02	209.18	-162.34	666.09	159.72	-128.83	786.86	193.28	-161.96	574.51	171.67	-139.08	574.42	292.75	-270.87	378.9	164.33	-228.97	301.16	155.69	-297.27	310.77	174.59	-206.33	368.43	151.59	-297	164.97	157.24	-276.59	168.59	245.8	-380.15	137.29	204.27	-380.98	104.45	231.12	-380.54	117.36	170.29	-210.75	72.871	119.49	-188.53	52.85	234.25	-116.87	60.263	179.51	-416.23	1555.3	312.27	-471.52	1279.7	308.33
248	1.0292	-226.59	1299.6	304.52	-345.3	1499.8	482.03	-377.49	1505.5	132.4	-286.94	1814.8	306.82	-261.55	1067.9	438.69	-249.62	1061.6	185.56	NaN	NaN	NaN	-456.31	1076	257.65	-326.14	993.14	484.53	-333.79	978.09	131.31	-351.22	1138.3	465.49	-325.45	1128.6	144.11	-469.38	1041.6	302.49	-351.83	744.67	457.45	-304.27	660.42	423.03	-372.58	660.54	434.68	-279.08	745.79	444.13	-371.21	546.39	415.33	-359.54	557.75	287.9	-452.96	326.13	394.36	-402.39	255.15	372.61	-467.64	252.21	373.27	-388.26	328.41	393.06	-455.04	118.95	341	-434.39	129.56	259.81	-521.61	84.917	287.7	-514.8	52.779	258	-517.25	53.447	322.81	-341.95	35.854	369.62	-313.77	42.955	249.25	-247.07	46.326	296.72	-170.44	756.22	148.23	-101.83	695.61	210.03	-156.52	666.44	160.56	-123.44	787.36	194.05	-155.37	574.85	172.4	-132.7	575.07	293.45	-259.93	376.63	164.9	-216.17	299.92	156.42	-284.71	307.91	175.18	-195.12	367.72	152.27	-280.9	162.03	157.97	-260.54	166.23	246.7	-363.57	132.42	204.96	-363.46	99.556	231.86	-363.32	112.33	171	-192.45	71.897	120.43	-169.77	52.698	235.28	-98.328	61.723	180.57	-411.19	1555	312.28	-466.66	1279.5	308.44
249	1.0333	-221.69	1299.2	304.55	-340.21	1499.5	482.01	-372.55	1505.1	132.41	-281.87	1814.5	306.67	-256.82	1067.4	438.73	-244.77	1061.3	185.59	NaN	NaN	NaN	-451.51	1075.7	257.67	-321.65	992.81	484.55	-328.79	977.8	131.31	-346.33	1137.9	465.5	-320.62	1128.2	144.15	-464.61	1041.4	302.5	-349.16	744.58	457.36	-302.16	660.09	422.9	-370.42	660.59	434.53	-276.45	745.29	444.12	-369.82	546.41	415.17	-358.13	557.72	287.75	-452.24	326.4	394.16	-401.84	255.29	372.45	-467.09	252.53	373.06	-387.51	328.54	392.94	-454.8	119.21	340.83	-433.97	129.72	259.66	-521.47	85.258	287.55	-514.52	53.07	257.94	-517.15	53.796	322.69	-341.91	35.866	369.53	-313.72	42.854	249.23	-246.96	46.186	296.73	-165.04	756.42	148.95	-96.265	696.09	210.84	-150.85	666.7	161.37	-118.15	787.75	194.77	-148.9	575.1	173.1	-126.44	575.64	294.13	-248.98	374.35	165.48	-203.37	298.71	157.19	-272.14	305.08	175.79	-183.95	367	152.97	-264.75	159.2	158.77	-244.48	164.02	247.68	-346.9	127.68	205.71	-345.86	94.827	232.67	-346.01	107.42	171.79	-174.14	71.082	121.49	-151.04	52.769	236.44	-79.851	63.385	181.76	-406.16	1554.7	312.28	-461.79	1279.2	308.54
250	1.0375	-216.79	1298.8	304.57	-335.13	1499.2	482	-367.6	1504.7	132.41	-276.79	1814.1	306.52	-252.08	1066.9	438.76	-239.91	1060.9	185.61	NaN	NaN	NaN	-446.71	1075.5	257.69	-317.16	992.46	484.56	-323.79	977.48	131.3	-341.43	1137.6	465.49	-315.77	1127.9	144.18	-459.82	1041.1	302.5	-346.48	744.47	457.29	-300.03	659.74	422.78	-368.24	660.63	434.4	-273.81	744.78	444.1	-368.41	546.42	415.03	-356.72	557.68	287.61	-451.51	326.68	393.98	-401.27	255.43	372.3	-466.52	252.84	372.88	-386.73	328.67	392.84	-454.55	119.47	340.67	-433.57	129.89	259.53	-521.33	85.599	287.41	-514.27	53.366	257.89	-517.04	54.142	322.58	-341.88	35.882	369.45	-313.65	42.753	249.22	-246.86	46.057	296.74	-159.75	756.53	149.63	-90.812	696.46	211.59	-145.3	666.87	162.15	-112.96	788.04	195.44	-142.54	575.27	173.76	-120.29	576.12	294.79	-238.04	372.07	166.06	-190.59	297.55	158.01	-259.56	302.28	176.41	-172.82	366.3	153.7	-248.56	156.49	159.65	-228.41	161.96	248.73	-330.15	123.08	206.53	-328.17	90.27	233.57	-328.61	102.65	172.66	-155.83	70.435	122.67	-132.36	53.073	237.73	-61.453	65.262	183.09	-401.13	1554.4	312.27	-456.92	1278.9	308.64
251	1.0417	-211.87	1298.4	304.58	-330.05	1498.9	481.97	-362.65	1504.2	132.4	-271.7	1813.7	306.36	-247.33	1066.3	438.78	-235.04	1060.5	185.63	NaN	NaN	NaN	-441.89	1075.2	257.7	-312.67	992.08	484.58	-318.79	977.12	131.29	-336.51	1137.2	465.49	-310.91	1127.5	144.21	-455.03	1040.8	302.51	-343.78	744.34	457.24	-297.89	659.36	422.67	-366.05	660.65	434.29	-271.16	744.25	444.07	-366.98	546.43	414.89	-355.29	557.63	287.48	-450.77	326.95	393.82	-400.69	255.56	372.17	-465.95	253.16	372.72	-385.92	328.78	392.75	-454.31	119.72	340.52	-433.2	130.07	259.4	-521.19	85.938	287.29	-514.03	53.666	257.84	-516.94	54.484	322.49	-341.85	35.904	369.39	-313.57	42.652	249.21	-246.76	45.936	296.75	-154.57	756.55	150.27	-85.472	696.72	212.3	-139.88	666.94	162.87	-107.86	788.23	196.07	-136.28	575.36	174.39	-114.27	576.51	295.41	-227.11	369.79	166.65	-177.84	296.44	158.87	-246.97	299.53	177.05	-161.73	365.61	154.45	-232.35	153.9	160.6	-212.37	160.06	249.86	-313.33	118.63	207.42	-310.42	85.895	234.56	-311.13	98.037	173.61	-137.53	69.968	123.97	-113.76	53.62	239.15	-43.147	67.364	184.54	-396.1	1554	312.27	-452.04	1278.6	308.72
252	1.0458	-206.95	1297.9	304.58	-324.97	1498.5	481.95	-357.69	1503.7	132.39	-266.61	1813.2	306.21	-242.57	1065.7	438.79	-230.17	1060	185.64	NaN	NaN	NaN	-437.06	1074.8	257.71	-308.17	991.67	484.61	-313.8	976.73	131.27	-331.58	1136.8	465.48	-306.04	1127.1	144.23	-450.23	1040.5	302.52	-341.07	744.19	457.22	-295.72	658.97	422.56	-363.84	660.66	434.19	-268.5	743.7	444.04	-365.53	546.42	414.77	-353.86	557.57	287.36	-450	327.21	393.69	-400.1	255.69	372.05	-465.36	253.46	372.58	-385.09	328.88	392.68	-454.07	119.97	340.38	-432.84	130.24	259.28	-521.05	86.274	287.19	-513.82	53.969	257.8	-516.85	54.821	322.41	-341.83	35.934	369.34	-313.49	42.552	249.21	-246.66	45.824	296.76	-149.49	756.47	150.87	-80.24	696.87	212.95	-134.58	666.92	163.55	-102.85	788.31	196.64	-130.13	575.35	174.99	-108.36	576.82	296.01	-216.19	367.53	167.24	-165.14	295.39	159.76	-234.38	296.83	177.72	-150.69	364.93	155.23	-216.13	151.45	161.62	-196.35	158.33	251.04	-296.45	114.33	208.38	-292.62	81.711	235.64	-293.58	93.576	174.66	-119.26	69.688	125.4	-95.232	54.421	240.69	-24.951	69.7	186.13	-391.07	1553.6	312.25	-447.15	1278.2	308.8
253	1.05	-202.03	1297.4	304.58	-319.89	1498.1	481.92	-352.72	1503.2	132.38	-261.51	1812.7	306.05	-237.81	1065.1	438.8	-225.29	1059.5	185.65	NaN	NaN	NaN	-432.21	1074.5	257.72	-303.68	991.22	484.64	-308.81	976.31	131.24	-326.64	1136.4	465.46	-301.16	1126.6	144.25	-445.42	1040.1	302.52	-338.34	744.01	457.21	-293.53	658.56	422.47	-361.6	660.64	434.11	-265.82	743.13	444	-364.04	546.39	414.66	-352.4	557.51	287.24	-449.21	327.47	393.57	-399.49	255.81	371.94	-464.75	253.77	372.45	-384.22	328.97	392.63	-453.82	120.21	340.26	-432.51	130.43	259.16	-520.92	86.607	287.1	-513.63	54.273	257.76	-516.75	55.154	322.34	-341.81	35.973	369.3	-313.4	42.454	249.21	-246.57	45.719	296.78	-144.51	756.3	151.42	-75.116	696.91	213.54	-129.4	666.8	164.18	-97.938	788.28	197.17	-124.08	575.26	175.55	-102.58	577.04	296.59	-205.3	365.28	167.85	-152.48	294.4	160.7	-221.8	294.18	178.41	-139.72	364.27	156.03	-199.92	149.14	162.72	-180.38	156.76	252.28	-279.53	110.18	209.41	-274.78	77.724	236.81	-275.97	89.279	175.79	-101.03	69.604	126.94	-76.806	55.483	242.35	-6.8792	72.281	187.84	-386.04	1553.2	312.24	-442.26	1277.8	308.88
254	1.0542	-197.09	1296.9	304.57	-314.81	1497.7	481.88	-347.75	1502.6	132.36	-256.41	1812.2	305.9	-233.04	1064.5	438.8	-220.39	1059	185.65	NaN	NaN	NaN	-427.36	1074.1	257.73	-299.18	990.75	484.68	-303.82	975.86	131.22	-321.69	1135.9	465.45	-296.27	1126.1	144.27	-440.6	1039.7	302.53	-335.58	743.81	457.22	-291.3	658.12	422.38	-359.33	660.61	434.05	-263.12	742.54	443.95	-362.52	546.36	414.56	-350.92	557.43	287.13	-448.39	327.72	393.47	-398.86	255.92	371.83	-464.13	254.07	372.35	-383.32	329.04	392.58	-453.57	120.45	340.14	-432.2	130.61	259.05	-520.79	86.936	287.02	-513.45	54.578	257.73	-516.66	55.483	322.28	-341.79	36.02	369.28	-313.31	42.359	249.21	-246.48	45.62	296.8	-139.62	756.04	151.91	-70.095	696.84	214.08	-124.33	666.59	164.76	-93.112	788.15	197.64	-118.14	575.07	176.07	-96.907	577.18	297.13	-194.45	363.05	168.47	-139.88	293.47	161.67	-209.25	291.6	179.14	-128.81	363.63	156.84	-183.74	146.98	163.89	-164.48	155.36	253.58	-262.57	106.19	210.51	-256.92	73.943	238.08	-258.31	85.15	177.01	-82.847	69.724	128.61	-58.497	56.816	244.14	11.05	75.114	189.67	-381.01	1552.7	312.22	-437.36	1277.3	308.94
255	1.0583	-192.14	1296.3	304.55	-309.73	1497.2	481.84	-342.78	1502	132.34	-251.31	1811.7	305.75	-228.26	1063.8	438.8	-215.49	1058.5	185.66	NaN	NaN	NaN	-422.49	1073.6	257.73	-294.69	990.24	484.72	-298.84	975.37	131.19	-316.74	1135.5	465.43	-291.36	1125.6	144.29	-435.78	1039.3	302.53	-332.79	743.59	457.25	-289.05	657.67	422.31	-357.04	660.55	434	-260.4	741.93	443.9	-360.96	546.3	414.47	-349.41	557.34	287.03	-447.55	327.96	393.39	-398.21	256.02	371.73	-463.49	254.36	372.26	-382.39	329.09	392.54	-453.32	120.68	340.04	-431.9	130.8	258.94	-520.66	87.26	286.96	-513.3	54.882	257.7	-516.57	55.806	322.23	-341.77	36.074	369.27	-313.21	42.266	249.21	-246.39	45.526	296.82	-134.83	755.68	152.35	-65.174	696.66	214.56	-119.37	666.28	165.28	-88.371	787.92	198.06	-112.31	574.8	176.57	-91.353	577.23	297.65	-183.63	360.85	169.12	-127.35	292.61	162.68	-196.73	289.09	179.9	-117.99	363.01	157.68	-167.58	144.97	165.13	-148.65	154.14	254.92	-245.58	102.38	211.69	-239.06	70.373	239.45	-240.62	81.195	178.32	-64.734	70.051	130.38	-40.322	58.426	246.04	28.818	78.205	191.61	-375.98	1552.2	312.19	-432.45	1276.8	309
256	1.0625	-187.18	1295.8	304.53	-304.65	1496.7	481.8	-337.8	1501.4	132.32	-246.19	1811.1	305.59	-223.48	1063.1	438.8	-210.58	1057.9	185.68	NaN	NaN	NaN	-417.6	1073.2	257.73	-290.19	989.7	484.77	-293.87	974.85	131.16	-311.78	1135	465.41	-286.44	1125.1	144.31	-430.94	1038.9	302.53	-329.97	743.34	457.29	-286.75	657.2	422.24	-354.7	660.47	433.96	-257.66	741.29	443.84	-359.36	546.23	414.39	-347.86	557.24	286.93	-446.67	328.19	393.32	-397.55	256.11	371.64	-462.83	254.64	372.19	-381.43	329.13	392.51	-453.07	120.91	339.94	-431.63	131	258.83	-520.53	87.58	286.91	-513.17	55.187	257.67	-516.48	56.125	322.18	-341.76	36.135	369.27	-313.11	42.178	249.21	-246.31	45.435	296.84	-130.11	755.23	152.74	-60.348	696.38	214.99	-114.5	665.88	165.74	-83.712	787.59	198.43	-106.57	574.45	177.03	-85.91	577.19	298.14	-172.87	358.68	169.79	-114.91	291.83	163.71	-184.25	286.65	180.71	-107.25	362.42	158.54	-151.48	143.12	166.44	-132.9	153.11	256.32	-228.58	98.737	212.94	-221.19	67.022	240.92	-222.91	77.419	179.73	-46.703	70.591	132.27	-22.298	60.318	248.05	46.408	81.559	193.66	-370.95	1551.7	312.16	-427.53	1276.3	309.05
